# xmcd
#
# Track frame offsets:
# 150
# 16170
# 29797
# 45532
# 59410
# 67882
# 81705
# 118005
# 129035
# 146912
#
# Disc length: 2098 seconds
#
#
# Revision: 1
# Processed by: cddbd v1.4PL0 Copyright (c) Steve Scherf et al.
# Submitted via: FreeRIP 2.53 
#
DISCID=8d08300a
DTITLE=Mannie and the Swingin' Hipshakers - Off the Wall Jive
DYEAR=1900
DGENRE=Blues
TTITLE0=Can't Understand Baby
TTITLE1=Every Night and Every Day
TTITLE2=Feel Like Cryin' Again
TTITLE3=Ramos Special
TTITLE4=Rhumba Bumba
TTITLE5=Love In Vain
TTITLE6=Nothing But A Fool
TTITLE7=Eyesight to the Blind
TTITLE8=Wildcattin'
TTITLE9=Certainly All
EXTD=
EXTT0=
EXTT1=
EXTT2=
EXTT3=
EXTT4=
EXTT5=
EXTT6=
EXTT7=
EXTT8=
EXTT9=
PLAYORDER=
